<svg width="19" height="13" viewBox="0 0 19 13" fill="none" xmlns="http://www.w3.org/2000/svg">
<g id="icon">
<path id="Line 5" d="M18.4243 8.07574C18.6586 8.31005 18.6586 8.68995 18.4243 8.92426L14.6059 12.7426C14.3716 12.977 13.9917 12.977 13.7574 12.7426C13.523 12.5083 13.523 12.1284 13.7574 11.8941L17.1515 8.5L13.7574 5.10589C13.523 4.87157 13.523 4.49167 13.7574 4.25736C13.9917 4.02304 14.3716 4.02304 14.6059 4.25736L18.4243 8.07574ZM10 9.1C9.66863 9.1 9.4 8.83137 9.4 8.5C9.4 8.16863 9.66863 7.9 10 7.9V9.1ZM18 9.1H10V7.9H18V9.1Z" fill="white"/>
<path id="Line 4" d="M0.575736 4.07574C0.341421 4.31005 0.341421 4.68995 0.575736 4.92426L4.39411 8.74264C4.62843 8.97696 5.00833 8.97696 5.24264 8.74264C5.47696 8.50833 5.47696 8.12843 5.24264 7.89411L1.84853 4.5L5.24264 1.10589C5.47696 0.871573 5.47696 0.491674 5.24264 0.257359C5.00833 0.0230446 4.62843 0.0230446 4.39411 0.257359L0.575736 4.07574ZM9 5.1C9.33137 5.1 9.6 4.83137 9.6 4.5C9.6 4.16863 9.33137 3.9 9 3.9V5.1ZM1 5.1H9V3.9H1V5.1Z" fill="white"/>
</g>
</svg>
