<svg width="20" height="17" viewBox="0 0 20 17" fill="none" xmlns="http://www.w3.org/2000/svg">
<path id="Union" fill-rule="evenodd" clip-rule="evenodd" d="M13.595 10.5271C14.136 9.52323 14.4426 8.37658 14.4426 7.15892C14.4426 3.20516 11.2095 0 7.2213 0C3.23309 0 0 3.20516 0 7.15892C0 11.1127 3.23309 14.3178 7.2213 14.3178C9.26014 14.3178 11.1016 13.4802 12.4147 12.1331L18.3042 16.7766C18.7379 17.1185 19.3877 17.0618 19.7556 16.6498C20.1234 16.2379 20.0701 15.6268 19.6364 15.2848L13.6712 10.5817C13.6465 10.5622 13.6211 10.544 13.595 10.5271ZM7.2213 13.2451C3.83069 13.2451 1.08206 10.5202 1.08206 7.15892C1.08206 3.7976 3.83069 1.07271 7.2213 1.07271C10.6119 1.07271 13.3605 3.7976 13.3605 7.15892C13.3605 10.5202 10.6119 13.2451 7.2213 13.2451Z" fill="#E2D8FD"/>
</svg>
