<svg width="16" height="17" viewBox="0 0 16 17" fill="none" xmlns="http://www.w3.org/2000/svg">
<g id="Frame 1318">
<rect x="0.380952" y="0.880952" width="15.2381" height="15.2381" rx="7.61905" stroke="#00C287" stroke-width="0.761905"/>
<path id="Line 4" d="M8.32325 5.12914C8.14472 4.95062 7.85528 4.95062 7.67675 5.12914L4.76751 8.03838C4.58899 8.21691 4.58899 8.50636 4.76751 8.68488C4.94604 8.86341 5.23548 8.86341 5.41401 8.68488L8 6.09889L10.586 8.68488C10.7645 8.86341 11.054 8.86341 11.2325 8.68488C11.411 8.50636 11.411 8.21691 11.2325 8.03838L8.32325 5.12914ZM7.54286 11.5476C7.54286 11.8001 7.74753 12.0048 8 12.0048C8.25247 12.0048 8.45714 11.8001 8.45714 11.5476L7.54286 11.5476ZM7.54286 5.45239L7.54286 11.5476L8.45714 11.5476L8.45714 5.45239L7.54286 5.45239Z" fill="#00C287"/>
</g>
</svg>
