<svg width="16" height="17" viewBox="0 0 16 17" fill="none" xmlns="http://www.w3.org/2000/svg">
<g id="Frame 1318">
<rect x="0.380952" y="-0.380952" width="15.2381" height="15.2381" rx="7.61905" transform="matrix(1 0 0 -1 0 15.7381)" stroke="#E72D04" stroke-width="0.761905"/>
<path id="Line 4" d="M8.32325 11.8709C8.14472 12.0494 7.85528 12.0494 7.67675 11.8709L4.76751 8.96162C4.58899 8.78309 4.58899 8.49364 4.76751 8.31512C4.94604 8.13659 5.23548 8.13659 5.41401 8.31512L8 10.9011L10.586 8.31512C10.7645 8.13659 11.054 8.13659 11.2325 8.31512C11.411 8.49364 11.411 8.78309 11.2325 8.96162L8.32325 11.8709ZM7.54286 5.45237C7.54286 5.1999 7.74753 4.99523 8 4.99523C8.25247 4.99523 8.45714 5.1999 8.45714 5.45237L7.54286 5.45237ZM7.54286 11.5476L7.54286 5.45237L8.45714 5.45237L8.45714 11.5476L7.54286 11.5476Z" fill="#E72D04"/>
</g>
</svg>
